<svg xmlns="http://www.w3.org/2000/svg" xmlns:xlink="http://www.w3.org/1999/xlink" width="512" zoomAndPan="magnify" viewBox="0 0 384 383.999986" height="512" preserveAspectRatio="xMidYMid meet" version="1.0"><defs><clipPath id="7e98d07f3a"><path d="M 21.617188 16.917969 L 362 16.917969 L 362 367.917969 L 21.617188 367.917969 Z M 21.617188 16.917969 " clip-rule="nonzero"/></clipPath><clipPath id="8e7b1fe1fd"><path d="M 39.617188 16.917969 L 344.382812 16.917969 C 354.324219 16.917969 362.382812 24.976562 362.382812 34.917969 L 362.382812 349.082031 C 362.382812 359.023438 354.324219 367.082031 344.382812 367.082031 L 39.617188 367.082031 C 29.675781 367.082031 21.617188 359.023438 21.617188 349.082031 L 21.617188 34.917969 C 21.617188 24.976562 29.675781 16.917969 39.617188 16.917969 " clip-rule="nonzero"/></clipPath><clipPath id="1a21586d70"><path d="M 40 39 L 345 39 L 345 343.648438 L 40 343.648438 Z M 40 39 " clip-rule="nonzero"/></clipPath></defs><g clip-path="url(#7e98d07f3a)"><g clip-path="url(#8e7b1fe1fd)"><path fill="#004b23" d="M 21.617188 16.917969 L 361.816406 16.917969 L 361.816406 367.917969 L 21.617188 367.917969 Z M 21.617188 16.917969 " fill-opacity="1" fill-rule="nonzero"/></g></g><g clip-path="url(#1a21586d70)"><path fill="#ffc72c" d="M 344.195312 103.792969 L 343.980469 103.425781 C 332.941406 84.304688 315.070312 70.613281 293.648438 64.875 C 272.230469 59.136719 249.90625 62.054688 230.785156 73.09375 L 155.015625 116.839844 L 111.484375 41.433594 C 110.167969 39.160156 107.257812 38.378906 104.984375 39.691406 L 104.617188 39.902344 C 85.496094 50.941406 71.804688 68.816406 66.066406 90.238281 C 60.328125 111.65625 63.246094 133.984375 74.285156 153.101562 L 118.03125 228.875 L 42.625 272.410156 C 40.351562 273.726562 39.570312 276.636719 40.882812 278.910156 L 41.097656 279.277344 C 52.132812 298.398438 70.007812 312.089844 91.429688 317.828125 C 98.601562 319.75 105.878906 320.703125 113.101562 320.703125 C 127.441406 320.703125 141.578125 316.953125 154.292969 309.609375 L 230.0625 265.863281 L 273.59375 341.269531 C 274.476562 342.796875 276.078125 343.652344 277.722656 343.652344 C 278.707031 343.652344 279.621094 343.285156 280.460938 342.800781 C 299.582031 331.761719 313.273438 313.886719 319.011719 292.464844 C 324.75 271.046875 321.832031 248.722656 310.792969 229.601562 L 267.046875 153.828125 L 342.453125 110.292969 C 344.726562 108.980469 345.507812 106.070312 344.195312 103.792969 Z M 217.105469 91.984375 C 213.765625 99.113281 211.53125 107.097656 210.441406 115.90625 C 208.671875 130.195312 209.878906 146.984375 214.011719 165.910156 C 208.207031 161.003906 200.714844 158.035156 192.539062 158.035156 C 188.171875 158.035156 184.003906 158.890625 180.179688 160.425781 L 159.777344 125.085938 Z M 168.742188 191.351562 C 168.742188 178.230469 179.417969 167.554688 192.539062 167.554688 C 205.660156 167.554688 216.335938 178.230469 216.335938 191.351562 C 216.335938 204.472656 205.660156 215.148438 192.539062 215.148438 C 179.417969 215.148438 168.742188 204.472656 168.742188 191.351562 Z M 75.261719 92.703125 C 79.964844 75.148438 90.695312 60.285156 105.683594 50.425781 L 168.789062 159.734375 C 128.921875 169.140625 99.816406 165.128906 82.214844 147.785156 C 72.710938 130.992188 70.234375 111.457031 75.261719 92.703125 Z M 93.175781 166.785156 C 100.300781 170.125 108.289062 172.355469 117.09375 173.449219 C 121.367188 173.976562 125.855469 174.242188 130.5625 174.242188 C 141.601562 174.242188 153.820312 172.78125 167.089844 169.886719 C 162.1875 175.6875 159.226562 183.179688 159.226562 191.351562 C 159.226562 195.71875 160.078125 199.886719 161.613281 203.710938 L 126.273438 224.117188 Z M 93.890625 308.636719 C 76.339844 303.933594 61.476562 293.199219 51.617188 278.210938 L 160.921875 215.101562 C 170.328125 254.972656 166.316406 284.078125 148.972656 301.683594 C 132.179688 311.1875 112.648438 313.660156 93.890625 308.636719 Z M 167.972656 290.71875 C 171.3125 283.59375 173.542969 275.605469 174.636719 266.800781 C 176.40625 252.511719 175.199219 235.722656 171.066406 216.796875 C 176.871094 221.699219 184.363281 224.667969 192.539062 224.667969 C 196.90625 224.667969 201.074219 223.8125 204.898438 222.28125 L 225.300781 257.621094 Z M 309.816406 290.003906 C 305.113281 307.558594 294.382812 322.421875 279.394531 332.28125 L 216.289062 222.96875 C 256.15625 213.566406 285.261719 217.574219 302.863281 234.921875 C 312.367188 251.714844 314.84375 271.246094 309.816406 290.003906 Z M 291.902344 215.917969 C 284.777344 212.578125 276.789062 210.347656 267.984375 209.253906 C 253.695312 207.484375 236.90625 208.691406 217.980469 212.824219 C 222.886719 207.023438 225.851562 199.527344 225.851562 191.351562 C 225.851562 186.984375 225 182.816406 223.464844 178.992188 L 258.804688 158.589844 Z M 224.15625 167.601562 C 214.753906 127.734375 218.761719 98.628906 236.105469 81.023438 C 252.898438 71.519531 272.429688 69.042969 291.1875 74.070312 C 308.738281 78.773438 323.601562 89.503906 333.460938 104.492188 Z M 224.15625 167.601562 " fill-opacity="1" fill-rule="nonzero"/></g></svg>