<svg xmlns="http://www.w3.org/2000/svg" xmlns:xlink="http://www.w3.org/1999/xlink" width="180" zoomAndPan="magnify" viewBox="0 0 135 30.000001" height="40" preserveAspectRatio="xMidYMid meet" version="1.0"><defs><g/><clipPath id="db8e6af8b1"><path d="M 12.015625 3.15625 L 34.515625 3.15625 L 34.515625 25.65625 L 12.015625 25.65625 Z M 12.015625 3.15625 " clip-rule="nonzero"/></clipPath></defs><g clip-path="url(#db8e6af8b1)"><path fill="#ffc72c" d="M 34.414062 7.976562 L 34.398438 7.949219 C 33.585938 6.539062 32.273438 5.53125 30.699219 5.105469 C 29.125 4.683594 27.480469 4.898438 26.078125 5.710938 L 20.503906 8.9375 L 17.304688 3.378906 C 17.207031 3.210938 16.992188 3.152344 16.824219 3.25 L 16.800781 3.265625 C 15.394531 4.078125 14.386719 5.398438 13.964844 6.976562 C 13.542969 8.554688 13.757812 10.199219 14.570312 11.609375 L 17.785156 17.195312 L 12.242188 20.40625 C 12.074219 20.5 12.015625 20.714844 12.113281 20.882812 L 12.128906 20.910156 C 12.941406 22.320312 14.253906 23.328125 15.828125 23.753906 C 16.355469 23.894531 16.890625 23.964844 17.421875 23.964844 C 18.476562 23.964844 19.515625 23.6875 20.453125 23.144531 L 26.023438 19.921875 L 29.222656 25.480469 C 29.289062 25.59375 29.40625 25.65625 29.527344 25.65625 C 29.601562 25.65625 29.667969 25.628906 29.730469 25.59375 C 31.132812 24.777344 32.140625 23.460938 32.5625 21.882812 C 32.984375 20.304688 32.769531 18.65625 31.960938 17.25 L 28.742188 11.664062 L 34.285156 8.453125 C 34.453125 8.359375 34.511719 8.144531 34.414062 7.976562 Z M 25.070312 7.105469 C 24.824219 7.628906 24.660156 8.21875 24.582031 8.867188 C 24.449219 9.921875 24.539062 11.160156 24.84375 12.554688 C 24.417969 12.191406 23.863281 11.972656 23.265625 11.972656 C 22.941406 11.972656 22.636719 12.035156 22.355469 12.148438 L 20.855469 9.542969 Z M 21.515625 14.429688 C 21.515625 13.460938 22.300781 12.675781 23.265625 12.675781 C 24.230469 12.675781 25.011719 13.460938 25.011719 14.429688 C 25.011719 15.398438 24.230469 16.183594 23.265625 16.183594 C 22.300781 16.183594 21.515625 15.398438 21.515625 14.429688 Z M 14.640625 7.15625 C 14.988281 5.863281 15.777344 4.769531 16.878906 4.042969 L 21.519531 12.097656 C 18.585938 12.792969 16.445312 12.496094 15.152344 11.21875 C 14.453125 9.980469 14.269531 8.539062 14.640625 7.15625 Z M 15.957031 12.617188 C 16.480469 12.863281 17.070312 13.03125 17.714844 13.109375 C 18.03125 13.148438 18.359375 13.167969 18.707031 13.167969 C 19.519531 13.167969 20.417969 13.0625 21.394531 12.847656 C 21.03125 13.273438 20.8125 13.828125 20.8125 14.429688 C 20.8125 14.75 20.878906 15.058594 20.988281 15.339844 L 18.390625 16.84375 Z M 16.011719 23.074219 C 14.71875 22.726562 13.625 21.9375 12.902344 20.832031 L 20.9375 16.179688 C 21.628906 19.117188 21.335938 21.265625 20.058594 22.5625 C 18.824219 23.261719 17.390625 23.445312 16.011719 23.074219 Z M 21.457031 21.753906 C 21.703125 21.226562 21.867188 20.640625 21.949219 19.992188 C 22.078125 18.9375 21.988281 17.699219 21.683594 16.304688 C 22.113281 16.667969 22.664062 16.886719 23.265625 16.886719 C 23.585938 16.886719 23.890625 16.820312 24.171875 16.710938 L 25.671875 19.3125 Z M 31.886719 21.699219 C 31.542969 22.996094 30.753906 24.089844 29.652344 24.816406 L 25.011719 16.761719 C 27.941406 16.066406 30.082031 16.363281 31.375 17.640625 C 32.074219 18.878906 32.257812 20.320312 31.886719 21.699219 Z M 30.570312 16.238281 C 30.046875 15.992188 29.457031 15.828125 28.8125 15.75 C 27.761719 15.617188 26.527344 15.707031 25.132812 16.011719 C 25.496094 15.585938 25.714844 15.03125 25.714844 14.429688 C 25.714844 14.109375 25.652344 13.800781 25.539062 13.519531 L 28.136719 12.015625 Z M 25.589844 12.679688 C 24.898438 9.738281 25.191406 7.59375 26.46875 6.296875 C 27.703125 5.597656 29.136719 5.414062 30.515625 5.785156 C 31.808594 6.132812 32.902344 6.921875 33.625 8.027344 Z M 25.589844 12.679688 " fill-opacity="1" fill-rule="nonzero"/></g><g fill="#ffc72c" fill-opacity="1"><g transform="translate(34.4063, 21.341435)"><g><path d="M 9.042969 -8.042969 L 15.015625 -15.410156 L 11.113281 -15.410156 L 6.269531 -9.351562 L 5.195312 -9.351562 L 5.195312 -15.410156 L 1.996094 -15.410156 L 1.996094 0 L 5.195312 0 L 5.195312 -6.546875 L 6.292969 -6.546875 L 11.113281 0 L 15.195312 0 Z M 9.042969 -8.042969 "/></g></g><g transform="translate(49.901874, 21.341435)"><g><path d="M 11.902344 -5.640625 C 11.890625 -9.480469 9.578125 -11.199219 6.472656 -11.199219 C 3.09375 -11.199219 0.714844 -9.085938 0.714844 -5.480469 C 0.714844 -1.878906 3.027344 0.214844 6.570312 0.214844 C 9.03125 0.214844 11.003906 -1.054688 11.730469 -3.273438 L 8.914062 -3.691406 C 8.5 -2.71875 7.644531 -2.207031 6.546875 -2.207031 C 5.085938 -2.207031 3.871094 -3.082031 3.742188 -4.90625 L 11.871094 -4.90625 Z M 6.496094 -9.023438 C 7.804688 -9.023438 8.789062 -8.242188 8.882812 -6.707031 L 3.796875 -6.707031 C 4.042969 -8.316406 5.035156 -9.023438 6.496094 -9.023438 Z M 6.496094 -9.023438 "/></g></g></g><g fill="#ffc72c" fill-opacity="1"><g transform="translate(62.550017, 21.341435)"><g><path d="M 8.0625 -11.175781 C 6.613281 -11.175781 5.429688 -10.652344 4.660156 -9.746094 L 4.660156 -10.964844 L 1.589844 -10.964844 L 1.589844 0 L 4.660156 0 L 4.660156 -6.046875 C 4.683594 -8.074219 5.832031 -8.714844 7.101562 -8.714844 C 8.160156 -8.714844 9.066406 -8.179688 9.066406 -6.71875 L 9.066406 0 L 12.148438 0 L 12.148438 -7.378906 C 12.148438 -9.8125 10.695312 -11.175781 8.0625 -11.175781 Z M 8.0625 -11.175781 "/></g></g></g><g fill="#ffc72c" fill-opacity="1"><g transform="translate(76.083316, 21.341435)"><g><path d="M 11.902344 -5.640625 C 11.890625 -9.480469 9.578125 -11.199219 6.472656 -11.199219 C 3.09375 -11.199219 0.714844 -9.085938 0.714844 -5.480469 C 0.714844 -1.878906 3.027344 0.214844 6.570312 0.214844 C 9.03125 0.214844 11.003906 -1.054688 11.730469 -3.273438 L 8.914062 -3.691406 C 8.5 -2.71875 7.644531 -2.207031 6.546875 -2.207031 C 5.085938 -2.207031 3.871094 -3.082031 3.742188 -4.90625 L 11.871094 -4.90625 Z M 6.496094 -9.023438 C 7.804688 -9.023438 8.789062 -8.242188 8.882812 -6.707031 L 3.796875 -6.707031 C 4.042969 -8.316406 5.035156 -9.023438 6.496094 -9.023438 Z M 6.496094 -9.023438 "/></g></g></g><g fill="#ffc72c" fill-opacity="1"><g transform="translate(88.731459, 21.341435)"><g><path d="M 4.597656 -9.34375 L 4.5 -10.964844 L 1.589844 -10.964844 L 1.589844 0 L 4.683594 0 L 4.683594 -5.34375 C 4.683594 -7.667969 5.789062 -8.351562 8.117188 -8.351562 L 8.117188 -11.089844 C 6.589844 -11.089844 5.195312 -10.269531 4.597656 -9.34375 Z M 4.597656 -9.34375 "/></g></g></g><g fill="#ffc72c" fill-opacity="1"><g transform="translate(97.049799, 21.341435)"><g><path d="M 9.140625 -10.964844 L 9.066406 -9.511719 C 8.46875 -10.492188 7.210938 -11.175781 5.671875 -11.175781 C 2.945312 -11.175781 0.652344 -9.085938 0.652344 -5.75 C 0.652344 -2.398438 2.933594 -0.257812 5.652344 -0.257812 C 7.082031 -0.257812 8.339844 -0.875 8.980469 -1.75 L 8.980469 -0.179688 C 8.980469 1.972656 8.074219 3.199219 6.132812 3.199219 C 4.660156 3.199219 3.765625 2.515625 3.144531 1.097656 L 0.597656 2.1875 C 1.398438 4.265625 3.101562 5.589844 6.25 5.589844 C 9.746094 5.589844 12.0625 3.859375 12.0625 -0.40625 L 12.0625 -10.964844 Z M 6.441406 -2.742188 C 4.851562 -2.742188 3.617188 -4 3.617188 -5.75 C 3.617188 -7.496094 4.832031 -8.746094 6.441406 -8.746094 C 8.0625 -8.746094 9.277344 -7.445312 9.277344 -5.75 C 9.277344 -4.042969 8.042969 -2.742188 6.441406 -2.742188 Z M 6.441406 -2.742188 "/></g></g></g><g fill="#ffc72c" fill-opacity="1"><g transform="translate(110.711073, 21.341435)"><g><path d="M 8.765625 -10.964844 L 5.992188 -3.753906 L 3.378906 -10.964844 L 0.03125 -10.964844 L 4.542969 -0.449219 L 1.960938 5.375 L 5.066406 5.375 L 11.914062 -10.964844 Z M 8.765625 -10.964844 "/></g></g></g></svg>